G04 #@! TF.GenerationSoftware,KiCad,Pcbnew,(6.0.6-0)*
G04 #@! TF.CreationDate,2022-07-25T13:34:47-04:00*
G04 #@! TF.ProjectId,PSone Filament LCD Backlight Mod,50536f6e-6520-4466-996c-616d656e7420,1*
G04 #@! TF.SameCoordinates,Original*
G04 #@! TF.FileFunction,Copper,L1,Top*
G04 #@! TF.FilePolarity,Positive*
%FSLAX46Y46*%
G04 Gerber Fmt 4.6, Leading zero omitted, Abs format (unit mm)*
G04 Created by KiCad (PCBNEW (6.0.6-0)) date 2022-07-25 13:34:47*
%MOMM*%
%LPD*%
G01*
G04 APERTURE LIST*
G04 #@! TA.AperFunction,ComponentPad*
%ADD10C,1.524000*%
G04 #@! TD*
G04 #@! TA.AperFunction,SMDPad,CuDef*
%ADD11R,1.320800X0.558800*%
G04 #@! TD*
G04 #@! TA.AperFunction,ComponentPad*
%ADD12C,1.750000*%
G04 #@! TD*
G04 #@! TA.AperFunction,ViaPad*
%ADD13C,0.700000*%
G04 #@! TD*
G04 #@! TA.AperFunction,Conductor*
%ADD14C,0.500000*%
G04 #@! TD*
G04 #@! TA.AperFunction,Conductor*
%ADD15C,0.250000*%
G04 #@! TD*
G04 APERTURE END LIST*
D10*
X139725000Y-106100000D03*
X149725000Y-106100000D03*
X132600000Y-103525000D03*
X122600000Y-103525000D03*
X139725000Y-101000000D03*
X149725000Y-101000000D03*
D11*
X137670200Y-104402500D03*
X137670200Y-102497500D03*
X135877750Y-103450000D03*
D12*
X122100000Y-100575000D03*
X122100000Y-105775000D03*
D10*
X135275000Y-106175000D03*
X125275000Y-106175000D03*
X135275000Y-100750000D03*
X125275000Y-100750000D03*
D12*
X152325000Y-105800000D03*
X152325000Y-100575000D03*
D13*
X146275000Y-102625000D03*
D14*
X135877750Y-103450000D02*
X135275000Y-103450000D01*
X135275000Y-103450000D02*
X133745000Y-101920000D01*
X133745000Y-101920000D02*
X126855000Y-101920000D01*
X126855000Y-101920000D02*
X123000000Y-105775000D01*
X123000000Y-105775000D02*
X122100000Y-105775000D01*
X137670200Y-102497500D02*
X140827500Y-102497500D01*
X142325000Y-101000000D02*
X149725000Y-101000000D01*
X140827500Y-102497500D02*
X142325000Y-101000000D01*
X149725000Y-101000000D02*
X151900000Y-101000000D01*
X151900000Y-101000000D02*
X152325000Y-100575000D01*
D15*
X146275000Y-102625000D02*
X149725000Y-106075000D01*
X149725000Y-106075000D02*
X149725000Y-106100000D01*
X144500000Y-104400000D02*
X137925000Y-104400000D01*
X146275000Y-102625000D02*
X144500000Y-104400000D01*
M02*
