G04 #@! TF.GenerationSoftware,KiCad,Pcbnew,(6.0.6-0)*
G04 #@! TF.CreationDate,2022-07-25T13:34:47-04:00*
G04 #@! TF.ProjectId,PSone Filament LCD Backlight Mod,50536f6e-6520-4466-996c-616d656e7420,1*
G04 #@! TF.SameCoordinates,Original*
G04 #@! TF.FileFunction,Legend,Bot*
G04 #@! TF.FilePolarity,Positive*
%FSLAX46Y46*%
G04 Gerber Fmt 4.6, Leading zero omitted, Abs format (unit mm)*
G04 Created by KiCad (PCBNEW (6.0.6-0)) date 2022-07-25 13:34:47*
%MOMM*%
%LPD*%
G01*
G04 APERTURE LIST*
%ADD10C,0.127000*%
%ADD11C,0.100000*%
%ADD12C,0.125000*%
%ADD13C,1.625600*%
%ADD14C,1.851600*%
G04 APERTURE END LIST*
D10*
X138660000Y-104670000D02*
X138300000Y-105030000D01*
X138300000Y-105030000D02*
X137940000Y-104670000D01*
X138300000Y-104180000D02*
X138300000Y-105030000D01*
X138975000Y-102537500D02*
X134225000Y-102537500D01*
X134225000Y-102537500D02*
X134225000Y-103912500D01*
X134225000Y-103912500D02*
X138975000Y-103912500D01*
X138975000Y-103912500D02*
X138975000Y-102537500D01*
X147575000Y-100275000D02*
X141575000Y-100275000D01*
X141575000Y-100275000D02*
X141575000Y-101750000D01*
X141575000Y-101750000D02*
X147575000Y-101750000D01*
X147575000Y-101750000D02*
X147575000Y-100275000D01*
D11*
X123273809Y-107148809D02*
X123273809Y-107386904D01*
X123773809Y-107386904D01*
X123535714Y-106982142D02*
X123535714Y-106815476D01*
X123273809Y-106744047D02*
X123273809Y-106982142D01*
X123773809Y-106982142D01*
X123773809Y-106744047D01*
X123273809Y-106529761D02*
X123773809Y-106529761D01*
X123773809Y-106410714D01*
X123750000Y-106339285D01*
X123702380Y-106291666D01*
X123654761Y-106267857D01*
X123559523Y-106244047D01*
X123488095Y-106244047D01*
X123392857Y-106267857D01*
X123345238Y-106291666D01*
X123297619Y-106339285D01*
X123273809Y-106410714D01*
X123273809Y-106529761D01*
X123226190Y-106148809D02*
X123226190Y-105767857D01*
X123750000Y-105386904D02*
X123773809Y-105434523D01*
X123773809Y-105505952D01*
X123750000Y-105577380D01*
X123702380Y-105625000D01*
X123654761Y-105648809D01*
X123559523Y-105672619D01*
X123488095Y-105672619D01*
X123392857Y-105648809D01*
X123345238Y-105625000D01*
X123297619Y-105577380D01*
X123273809Y-105505952D01*
X123273809Y-105458333D01*
X123297619Y-105386904D01*
X123321428Y-105363095D01*
X123488095Y-105363095D01*
X123488095Y-105458333D01*
X123273809Y-105148809D02*
X123773809Y-105148809D01*
X123273809Y-104863095D01*
X123773809Y-104863095D01*
X123273809Y-104625000D02*
X123773809Y-104625000D01*
X123773809Y-104505952D01*
X123750000Y-104434523D01*
X123702380Y-104386904D01*
X123654761Y-104363095D01*
X123559523Y-104339285D01*
X123488095Y-104339285D01*
X123392857Y-104363095D01*
X123345238Y-104386904D01*
X123297619Y-104434523D01*
X123273809Y-104505952D01*
X123273809Y-104625000D01*
D10*
X148133333Y-103503166D02*
X148133333Y-102803166D01*
X147866666Y-102803166D01*
X147800000Y-102836500D01*
X147766666Y-102869833D01*
X147733333Y-102936500D01*
X147733333Y-103036500D01*
X147766666Y-103103166D01*
X147800000Y-103136500D01*
X147866666Y-103169833D01*
X148133333Y-103169833D01*
X147466666Y-103469833D02*
X147366666Y-103503166D01*
X147200000Y-103503166D01*
X147133333Y-103469833D01*
X147100000Y-103436500D01*
X147066666Y-103369833D01*
X147066666Y-103303166D01*
X147100000Y-103236500D01*
X147133333Y-103203166D01*
X147200000Y-103169833D01*
X147333333Y-103136500D01*
X147400000Y-103103166D01*
X147433333Y-103069833D01*
X147466666Y-103003166D01*
X147466666Y-102936500D01*
X147433333Y-102869833D01*
X147400000Y-102836500D01*
X147333333Y-102803166D01*
X147166666Y-102803166D01*
X147066666Y-102836500D01*
X146666666Y-103503166D02*
X146733333Y-103469833D01*
X146766666Y-103436500D01*
X146800000Y-103369833D01*
X146800000Y-103169833D01*
X146766666Y-103103166D01*
X146733333Y-103069833D01*
X146666666Y-103036500D01*
X146566666Y-103036500D01*
X146500000Y-103069833D01*
X146466666Y-103103166D01*
X146433333Y-103169833D01*
X146433333Y-103369833D01*
X146466666Y-103436500D01*
X146500000Y-103469833D01*
X146566666Y-103503166D01*
X146666666Y-103503166D01*
X146133333Y-103036500D02*
X146133333Y-103503166D01*
X146133333Y-103103166D02*
X146100000Y-103069833D01*
X146033333Y-103036500D01*
X145933333Y-103036500D01*
X145866666Y-103069833D01*
X145833333Y-103136500D01*
X145833333Y-103503166D01*
X145233333Y-103469833D02*
X145300000Y-103503166D01*
X145433333Y-103503166D01*
X145500000Y-103469833D01*
X145533333Y-103403166D01*
X145533333Y-103136500D01*
X145500000Y-103069833D01*
X145433333Y-103036500D01*
X145300000Y-103036500D01*
X145233333Y-103069833D01*
X145200000Y-103136500D01*
X145200000Y-103203166D01*
X145533333Y-103269833D01*
X144400000Y-103469833D02*
X144300000Y-103503166D01*
X144133333Y-103503166D01*
X144066666Y-103469833D01*
X144033333Y-103436500D01*
X144000000Y-103369833D01*
X144000000Y-103303166D01*
X144033333Y-103236500D01*
X144066666Y-103203166D01*
X144133333Y-103169833D01*
X144266666Y-103136500D01*
X144333333Y-103103166D01*
X144366666Y-103069833D01*
X144400000Y-103003166D01*
X144400000Y-102936500D01*
X144366666Y-102869833D01*
X144333333Y-102836500D01*
X144266666Y-102803166D01*
X144100000Y-102803166D01*
X144000000Y-102836500D01*
X143400000Y-103469833D02*
X143466666Y-103503166D01*
X143600000Y-103503166D01*
X143666666Y-103469833D01*
X143700000Y-103436500D01*
X143733333Y-103369833D01*
X143733333Y-103169833D01*
X143700000Y-103103166D01*
X143666666Y-103069833D01*
X143600000Y-103036500D01*
X143466666Y-103036500D01*
X143400000Y-103069833D01*
X143100000Y-103503166D02*
X143100000Y-103036500D01*
X143100000Y-103169833D02*
X143066666Y-103103166D01*
X143033333Y-103069833D01*
X142966666Y-103036500D01*
X142900000Y-103036500D01*
X142400000Y-103469833D02*
X142466666Y-103503166D01*
X142600000Y-103503166D01*
X142666666Y-103469833D01*
X142700000Y-103403166D01*
X142700000Y-103136500D01*
X142666666Y-103069833D01*
X142600000Y-103036500D01*
X142466666Y-103036500D01*
X142400000Y-103069833D01*
X142366666Y-103136500D01*
X142366666Y-103203166D01*
X142700000Y-103269833D01*
X141800000Y-103469833D02*
X141866666Y-103503166D01*
X142000000Y-103503166D01*
X142066666Y-103469833D01*
X142100000Y-103403166D01*
X142100000Y-103136500D01*
X142066666Y-103069833D01*
X142000000Y-103036500D01*
X141866666Y-103036500D01*
X141800000Y-103069833D01*
X141766666Y-103136500D01*
X141766666Y-103203166D01*
X142100000Y-103269833D01*
X141466666Y-103036500D02*
X141466666Y-103503166D01*
X141466666Y-103103166D02*
X141433333Y-103069833D01*
X141366666Y-103036500D01*
X141266666Y-103036500D01*
X141200000Y-103069833D01*
X141166666Y-103136500D01*
X141166666Y-103503166D01*
X149016666Y-104263500D02*
X149250000Y-104263500D01*
X149250000Y-104630166D02*
X149250000Y-103930166D01*
X148916666Y-103930166D01*
X148650000Y-104630166D02*
X148650000Y-104163500D01*
X148650000Y-103930166D02*
X148683333Y-103963500D01*
X148650000Y-103996833D01*
X148616666Y-103963500D01*
X148650000Y-103930166D01*
X148650000Y-103996833D01*
X148216666Y-104630166D02*
X148283333Y-104596833D01*
X148316666Y-104530166D01*
X148316666Y-103930166D01*
X147650000Y-104630166D02*
X147650000Y-104263500D01*
X147683333Y-104196833D01*
X147750000Y-104163500D01*
X147883333Y-104163500D01*
X147950000Y-104196833D01*
X147650000Y-104596833D02*
X147716666Y-104630166D01*
X147883333Y-104630166D01*
X147950000Y-104596833D01*
X147983333Y-104530166D01*
X147983333Y-104463500D01*
X147950000Y-104396833D01*
X147883333Y-104363500D01*
X147716666Y-104363500D01*
X147650000Y-104330166D01*
X147316666Y-104630166D02*
X147316666Y-104163500D01*
X147316666Y-104230166D02*
X147283333Y-104196833D01*
X147216666Y-104163500D01*
X147116666Y-104163500D01*
X147050000Y-104196833D01*
X147016666Y-104263500D01*
X147016666Y-104630166D01*
X147016666Y-104263500D02*
X146983333Y-104196833D01*
X146916666Y-104163500D01*
X146816666Y-104163500D01*
X146750000Y-104196833D01*
X146716666Y-104263500D01*
X146716666Y-104630166D01*
X146116666Y-104596833D02*
X146183333Y-104630166D01*
X146316666Y-104630166D01*
X146383333Y-104596833D01*
X146416666Y-104530166D01*
X146416666Y-104263500D01*
X146383333Y-104196833D01*
X146316666Y-104163500D01*
X146183333Y-104163500D01*
X146116666Y-104196833D01*
X146083333Y-104263500D01*
X146083333Y-104330166D01*
X146416666Y-104396833D01*
X145783333Y-104163500D02*
X145783333Y-104630166D01*
X145783333Y-104230166D02*
X145750000Y-104196833D01*
X145683333Y-104163500D01*
X145583333Y-104163500D01*
X145516666Y-104196833D01*
X145483333Y-104263500D01*
X145483333Y-104630166D01*
X145250000Y-104163500D02*
X144983333Y-104163500D01*
X145150000Y-103930166D02*
X145150000Y-104530166D01*
X145116666Y-104596833D01*
X145050000Y-104630166D01*
X144983333Y-104630166D01*
X143883333Y-104630166D02*
X144216666Y-104630166D01*
X144216666Y-103930166D01*
X143650000Y-104263500D02*
X143416666Y-104263500D01*
X143316666Y-104630166D02*
X143650000Y-104630166D01*
X143650000Y-103930166D01*
X143316666Y-103930166D01*
X143016666Y-104630166D02*
X143016666Y-103930166D01*
X142850000Y-103930166D01*
X142750000Y-103963500D01*
X142683333Y-104030166D01*
X142650000Y-104096833D01*
X142616666Y-104230166D01*
X142616666Y-104330166D01*
X142650000Y-104463500D01*
X142683333Y-104530166D01*
X142750000Y-104596833D01*
X142850000Y-104630166D01*
X143016666Y-104630166D01*
X141783333Y-104630166D02*
X141783333Y-103930166D01*
X141550000Y-104430166D01*
X141316666Y-103930166D01*
X141316666Y-104630166D01*
X140883333Y-104630166D02*
X140950000Y-104596833D01*
X140983333Y-104563500D01*
X141016666Y-104496833D01*
X141016666Y-104296833D01*
X140983333Y-104230166D01*
X140950000Y-104196833D01*
X140883333Y-104163500D01*
X140783333Y-104163500D01*
X140716666Y-104196833D01*
X140683333Y-104230166D01*
X140650000Y-104296833D01*
X140650000Y-104496833D01*
X140683333Y-104563500D01*
X140716666Y-104596833D01*
X140783333Y-104630166D01*
X140883333Y-104630166D01*
X140050000Y-104630166D02*
X140050000Y-103930166D01*
X140050000Y-104596833D02*
X140116666Y-104630166D01*
X140250000Y-104630166D01*
X140316666Y-104596833D01*
X140350000Y-104563500D01*
X140383333Y-104496833D01*
X140383333Y-104296833D01*
X140350000Y-104230166D01*
X140316666Y-104196833D01*
X140250000Y-104163500D01*
X140116666Y-104163500D01*
X140050000Y-104196833D01*
X138650142Y-103607214D02*
X138650142Y-102845214D01*
X138468714Y-102845214D01*
X138359857Y-102881500D01*
X138287285Y-102954071D01*
X138251000Y-103026642D01*
X138214714Y-103171785D01*
X138214714Y-103280642D01*
X138251000Y-103425785D01*
X138287285Y-103498357D01*
X138359857Y-103570928D01*
X138468714Y-103607214D01*
X138650142Y-103607214D01*
X137452714Y-103534642D02*
X137489000Y-103570928D01*
X137597857Y-103607214D01*
X137670428Y-103607214D01*
X137779285Y-103570928D01*
X137851857Y-103498357D01*
X137888142Y-103425785D01*
X137924428Y-103280642D01*
X137924428Y-103171785D01*
X137888142Y-103026642D01*
X137851857Y-102954071D01*
X137779285Y-102881500D01*
X137670428Y-102845214D01*
X137597857Y-102845214D01*
X137489000Y-102881500D01*
X137452714Y-102917785D01*
X137307571Y-103679785D02*
X136727000Y-103679785D01*
X136110142Y-103534642D02*
X136146428Y-103570928D01*
X136255285Y-103607214D01*
X136327857Y-103607214D01*
X136436714Y-103570928D01*
X136509285Y-103498357D01*
X136545571Y-103425785D01*
X136581857Y-103280642D01*
X136581857Y-103171785D01*
X136545571Y-103026642D01*
X136509285Y-102954071D01*
X136436714Y-102881500D01*
X136327857Y-102845214D01*
X136255285Y-102845214D01*
X136146428Y-102881500D01*
X136110142Y-102917785D01*
X135638428Y-102845214D02*
X135493285Y-102845214D01*
X135420714Y-102881500D01*
X135348142Y-102954071D01*
X135311857Y-103099214D01*
X135311857Y-103353214D01*
X135348142Y-103498357D01*
X135420714Y-103570928D01*
X135493285Y-103607214D01*
X135638428Y-103607214D01*
X135711000Y-103570928D01*
X135783571Y-103498357D01*
X135819857Y-103353214D01*
X135819857Y-103099214D01*
X135783571Y-102954071D01*
X135711000Y-102881500D01*
X135638428Y-102845214D01*
X134985285Y-103607214D02*
X134985285Y-102845214D01*
X134549857Y-103607214D01*
X134549857Y-102845214D01*
D11*
X123273809Y-102201190D02*
X123273809Y-102439285D01*
X123773809Y-102439285D01*
X123535714Y-102034523D02*
X123535714Y-101867857D01*
X123273809Y-101796428D02*
X123273809Y-102034523D01*
X123773809Y-102034523D01*
X123773809Y-101796428D01*
X123273809Y-101582142D02*
X123773809Y-101582142D01*
X123773809Y-101463095D01*
X123750000Y-101391666D01*
X123702380Y-101344047D01*
X123654761Y-101320238D01*
X123559523Y-101296428D01*
X123488095Y-101296428D01*
X123392857Y-101320238D01*
X123345238Y-101344047D01*
X123297619Y-101391666D01*
X123273809Y-101463095D01*
X123273809Y-101582142D01*
X123226190Y-101201190D02*
X123226190Y-100820238D01*
X123773809Y-100772619D02*
X123273809Y-100605952D01*
X123773809Y-100439285D01*
X123321428Y-99986904D02*
X123297619Y-100010714D01*
X123273809Y-100082142D01*
X123273809Y-100129761D01*
X123297619Y-100201190D01*
X123345238Y-100248809D01*
X123392857Y-100272619D01*
X123488095Y-100296428D01*
X123559523Y-100296428D01*
X123654761Y-100272619D01*
X123702380Y-100248809D01*
X123750000Y-100201190D01*
X123773809Y-100129761D01*
X123773809Y-100082142D01*
X123750000Y-100010714D01*
X123726190Y-99986904D01*
X123321428Y-99486904D02*
X123297619Y-99510714D01*
X123273809Y-99582142D01*
X123273809Y-99629761D01*
X123297619Y-99701190D01*
X123345238Y-99748809D01*
X123392857Y-99772619D01*
X123488095Y-99796428D01*
X123559523Y-99796428D01*
X123654761Y-99772619D01*
X123702380Y-99748809D01*
X123750000Y-99701190D01*
X123773809Y-99629761D01*
X123773809Y-99582142D01*
X123750000Y-99510714D01*
X123726190Y-99486904D01*
X150651190Y-105386904D02*
X150651190Y-105720238D01*
X151151190Y-105505952D01*
X151103571Y-105910714D02*
X151127380Y-105934523D01*
X151151190Y-105910714D01*
X151127380Y-105886904D01*
X151103571Y-105910714D01*
X151151190Y-105910714D01*
X150651190Y-106386904D02*
X150651190Y-106148809D01*
X150889285Y-106125000D01*
X150865476Y-106148809D01*
X150841666Y-106196428D01*
X150841666Y-106315476D01*
X150865476Y-106363095D01*
X150889285Y-106386904D01*
X150936904Y-106410714D01*
X151055952Y-106410714D01*
X151103571Y-106386904D01*
X151127380Y-106363095D01*
X151151190Y-106315476D01*
X151151190Y-106196428D01*
X151127380Y-106148809D01*
X151103571Y-106125000D01*
X150651190Y-106553571D02*
X151151190Y-106720238D01*
X150651190Y-106886904D01*
D10*
X148082142Y-105771428D02*
X148082142Y-106200000D01*
X148110714Y-106285714D01*
X148167857Y-106342857D01*
X148253571Y-106371428D01*
X148310714Y-106371428D01*
X147567857Y-106342857D02*
X147625000Y-106371428D01*
X147739285Y-106371428D01*
X147796428Y-106342857D01*
X147825000Y-106285714D01*
X147825000Y-106057142D01*
X147796428Y-106000000D01*
X147739285Y-105971428D01*
X147625000Y-105971428D01*
X147567857Y-106000000D01*
X147539285Y-106057142D01*
X147539285Y-106114285D01*
X147825000Y-106171428D01*
X147367857Y-105971428D02*
X147139285Y-105971428D01*
X147282142Y-106371428D02*
X147282142Y-105857142D01*
X147253571Y-105800000D01*
X147196428Y-105771428D01*
X147139285Y-105771428D01*
X147025000Y-105971428D02*
X146796428Y-105971428D01*
X146939285Y-106371428D02*
X146939285Y-105857142D01*
X146910714Y-105800000D01*
X146853571Y-105771428D01*
X146796428Y-105771428D01*
X145796428Y-106314285D02*
X145825000Y-106342857D01*
X145910714Y-106371428D01*
X145967857Y-106371428D01*
X146053571Y-106342857D01*
X146110714Y-106285714D01*
X146139285Y-106228571D01*
X146167857Y-106114285D01*
X146167857Y-106028571D01*
X146139285Y-105914285D01*
X146110714Y-105857142D01*
X146053571Y-105800000D01*
X145967857Y-105771428D01*
X145910714Y-105771428D01*
X145825000Y-105800000D01*
X145796428Y-105828571D01*
X145539285Y-106371428D02*
X145539285Y-105771428D01*
X145282142Y-106371428D02*
X145282142Y-106057142D01*
X145310714Y-106000000D01*
X145367857Y-105971428D01*
X145453571Y-105971428D01*
X145510714Y-106000000D01*
X145539285Y-106028571D01*
X144767857Y-106342857D02*
X144825000Y-106371428D01*
X144939285Y-106371428D01*
X144996428Y-106342857D01*
X145025000Y-106285714D01*
X145025000Y-106057142D01*
X144996428Y-106000000D01*
X144939285Y-105971428D01*
X144825000Y-105971428D01*
X144767857Y-106000000D01*
X144739285Y-106057142D01*
X144739285Y-106114285D01*
X145025000Y-106171428D01*
X144482142Y-105971428D02*
X144482142Y-106371428D01*
X144482142Y-106028571D02*
X144453571Y-106000000D01*
X144396428Y-105971428D01*
X144310714Y-105971428D01*
X144253571Y-106000000D01*
X144225000Y-106057142D01*
X144225000Y-106371428D01*
X143910714Y-106342857D02*
X143910714Y-106371428D01*
X143939285Y-106428571D01*
X143967857Y-106457142D01*
X143225000Y-105828571D02*
X143196428Y-105800000D01*
X143139285Y-105771428D01*
X142996428Y-105771428D01*
X142939285Y-105800000D01*
X142910714Y-105828571D01*
X142882142Y-105885714D01*
X142882142Y-105942857D01*
X142910714Y-106028571D01*
X143253571Y-106371428D01*
X142882142Y-106371428D01*
X142510714Y-105771428D02*
X142453571Y-105771428D01*
X142396428Y-105800000D01*
X142367857Y-105828571D01*
X142339285Y-105885714D01*
X142310714Y-106000000D01*
X142310714Y-106142857D01*
X142339285Y-106257142D01*
X142367857Y-106314285D01*
X142396428Y-106342857D01*
X142453571Y-106371428D01*
X142510714Y-106371428D01*
X142567857Y-106342857D01*
X142596428Y-106314285D01*
X142625000Y-106257142D01*
X142653571Y-106142857D01*
X142653571Y-106000000D01*
X142625000Y-105885714D01*
X142596428Y-105828571D01*
X142567857Y-105800000D01*
X142510714Y-105771428D01*
X142082142Y-105828571D02*
X142053571Y-105800000D01*
X141996428Y-105771428D01*
X141853571Y-105771428D01*
X141796428Y-105800000D01*
X141767857Y-105828571D01*
X141739285Y-105885714D01*
X141739285Y-105942857D01*
X141767857Y-106028571D01*
X142110714Y-106371428D01*
X141739285Y-106371428D01*
X141510714Y-105828571D02*
X141482142Y-105800000D01*
X141425000Y-105771428D01*
X141282142Y-105771428D01*
X141225000Y-105800000D01*
X141196428Y-105828571D01*
X141167857Y-105885714D01*
X141167857Y-105942857D01*
X141196428Y-106028571D01*
X141539285Y-106371428D01*
X141167857Y-106371428D01*
D12*
X134025000Y-101926166D02*
X134258333Y-101592833D01*
X134425000Y-101926166D02*
X134425000Y-101226166D01*
X134158333Y-101226166D01*
X134091666Y-101259500D01*
X134058333Y-101292833D01*
X134025000Y-101359500D01*
X134025000Y-101459500D01*
X134058333Y-101526166D01*
X134091666Y-101559500D01*
X134158333Y-101592833D01*
X134425000Y-101592833D01*
X133358333Y-101926166D02*
X133758333Y-101926166D01*
X133558333Y-101926166D02*
X133558333Y-101226166D01*
X133625000Y-101326166D01*
X133691666Y-101392833D01*
X133758333Y-101426166D01*
X133058333Y-101659500D02*
X132525000Y-101659500D01*
X131791666Y-101926166D02*
X132025000Y-101592833D01*
X132191666Y-101926166D02*
X132191666Y-101226166D01*
X131925000Y-101226166D01*
X131858333Y-101259500D01*
X131825000Y-101292833D01*
X131791666Y-101359500D01*
X131791666Y-101459500D01*
X131825000Y-101526166D01*
X131858333Y-101559500D01*
X131925000Y-101592833D01*
X132191666Y-101592833D01*
X131558333Y-101226166D02*
X131125000Y-101226166D01*
X131358333Y-101492833D01*
X131258333Y-101492833D01*
X131191666Y-101526166D01*
X131158333Y-101559500D01*
X131125000Y-101626166D01*
X131125000Y-101792833D01*
X131158333Y-101859500D01*
X131191666Y-101892833D01*
X131258333Y-101926166D01*
X131458333Y-101926166D01*
X131525000Y-101892833D01*
X131558333Y-101859500D01*
X130825000Y-101859500D02*
X130791666Y-101892833D01*
X130825000Y-101926166D01*
X130858333Y-101892833D01*
X130825000Y-101859500D01*
X130825000Y-101926166D01*
X130825000Y-101492833D02*
X130791666Y-101526166D01*
X130825000Y-101559500D01*
X130858333Y-101526166D01*
X130825000Y-101492833D01*
X130825000Y-101559500D01*
X129658333Y-101459500D02*
X129658333Y-101926166D01*
X129825000Y-101192833D02*
X129991666Y-101692833D01*
X129558333Y-101692833D01*
X129191666Y-101526166D02*
X129258333Y-101492833D01*
X129291666Y-101459500D01*
X129325000Y-101392833D01*
X129325000Y-101359500D01*
X129291666Y-101292833D01*
X129258333Y-101259500D01*
X129191666Y-101226166D01*
X129058333Y-101226166D01*
X128991666Y-101259500D01*
X128958333Y-101292833D01*
X128925000Y-101359500D01*
X128925000Y-101392833D01*
X128958333Y-101459500D01*
X128991666Y-101492833D01*
X129058333Y-101526166D01*
X129191666Y-101526166D01*
X129258333Y-101559500D01*
X129291666Y-101592833D01*
X129325000Y-101659500D01*
X129325000Y-101792833D01*
X129291666Y-101859500D01*
X129258333Y-101892833D01*
X129191666Y-101926166D01*
X129058333Y-101926166D01*
X128991666Y-101892833D01*
X128958333Y-101859500D01*
X128925000Y-101792833D01*
X128925000Y-101659500D01*
X128958333Y-101592833D01*
X128991666Y-101559500D01*
X129058333Y-101526166D01*
X127958333Y-101226166D02*
X127825000Y-101226166D01*
X127758333Y-101259500D01*
X127691666Y-101326166D01*
X127658333Y-101459500D01*
X127658333Y-101692833D01*
X127691666Y-101826166D01*
X127758333Y-101892833D01*
X127825000Y-101926166D01*
X127958333Y-101926166D01*
X128025000Y-101892833D01*
X128091666Y-101826166D01*
X128125000Y-101692833D01*
X128125000Y-101459500D01*
X128091666Y-101326166D01*
X128025000Y-101259500D01*
X127958333Y-101226166D01*
X127358333Y-101926166D02*
X127358333Y-101226166D01*
X127058333Y-101926166D02*
X127058333Y-101559500D01*
X127091666Y-101492833D01*
X127158333Y-101459500D01*
X127258333Y-101459500D01*
X127325000Y-101492833D01*
X127358333Y-101526166D01*
X126725000Y-101926166D02*
X126725000Y-101459500D01*
X126725000Y-101526166D02*
X126691666Y-101492833D01*
X126625000Y-101459500D01*
X126525000Y-101459500D01*
X126458333Y-101492833D01*
X126425000Y-101559500D01*
X126425000Y-101926166D01*
X126425000Y-101559500D02*
X126391666Y-101492833D01*
X126325000Y-101459500D01*
X126225000Y-101459500D01*
X126158333Y-101492833D01*
X126125000Y-101559500D01*
X126125000Y-101926166D01*
X134541666Y-105307166D02*
X134775000Y-104973833D01*
X134941666Y-105307166D02*
X134941666Y-104607166D01*
X134675000Y-104607166D01*
X134608333Y-104640500D01*
X134575000Y-104673833D01*
X134541666Y-104740500D01*
X134541666Y-104840500D01*
X134575000Y-104907166D01*
X134608333Y-104940500D01*
X134675000Y-104973833D01*
X134941666Y-104973833D01*
X133941666Y-104840500D02*
X133941666Y-105307166D01*
X134108333Y-104573833D02*
X134275000Y-105073833D01*
X133841666Y-105073833D01*
X133541666Y-105273833D02*
X133541666Y-105307166D01*
X133575000Y-105373833D01*
X133608333Y-105407166D01*
X132308333Y-105307166D02*
X132541666Y-104973833D01*
X132708333Y-105307166D02*
X132708333Y-104607166D01*
X132441666Y-104607166D01*
X132375000Y-104640500D01*
X132341666Y-104673833D01*
X132308333Y-104740500D01*
X132308333Y-104840500D01*
X132341666Y-104907166D01*
X132375000Y-104940500D01*
X132441666Y-104973833D01*
X132708333Y-104973833D01*
X131675000Y-104607166D02*
X132008333Y-104607166D01*
X132041666Y-104940500D01*
X132008333Y-104907166D01*
X131941666Y-104873833D01*
X131775000Y-104873833D01*
X131708333Y-104907166D01*
X131675000Y-104940500D01*
X131641666Y-105007166D01*
X131641666Y-105173833D01*
X131675000Y-105240500D01*
X131708333Y-105273833D01*
X131775000Y-105307166D01*
X131941666Y-105307166D01*
X132008333Y-105273833D01*
X132041666Y-105240500D01*
X131341666Y-105240500D02*
X131308333Y-105273833D01*
X131341666Y-105307166D01*
X131375000Y-105273833D01*
X131341666Y-105240500D01*
X131341666Y-105307166D01*
X131341666Y-104873833D02*
X131308333Y-104907166D01*
X131341666Y-104940500D01*
X131375000Y-104907166D01*
X131341666Y-104873833D01*
X131341666Y-104940500D01*
X130108333Y-105307166D02*
X130508333Y-105307166D01*
X130308333Y-105307166D02*
X130308333Y-104607166D01*
X130375000Y-104707166D01*
X130441666Y-104773833D01*
X130508333Y-104807166D01*
X129808333Y-105240500D02*
X129775000Y-105273833D01*
X129808333Y-105307166D01*
X129841666Y-105273833D01*
X129808333Y-105240500D01*
X129808333Y-105307166D01*
X129508333Y-104673833D02*
X129475000Y-104640500D01*
X129408333Y-104607166D01*
X129241666Y-104607166D01*
X129175000Y-104640500D01*
X129141666Y-104673833D01*
X129108333Y-104740500D01*
X129108333Y-104807166D01*
X129141666Y-104907166D01*
X129541666Y-105307166D01*
X129108333Y-105307166D01*
X128808333Y-105307166D02*
X128808333Y-104607166D01*
X128408333Y-105307166D02*
X128708333Y-104907166D01*
X128408333Y-104607166D02*
X128808333Y-105007166D01*
X127441666Y-104607166D02*
X127308333Y-104607166D01*
X127241666Y-104640500D01*
X127175000Y-104707166D01*
X127141666Y-104840500D01*
X127141666Y-105073833D01*
X127175000Y-105207166D01*
X127241666Y-105273833D01*
X127308333Y-105307166D01*
X127441666Y-105307166D01*
X127508333Y-105273833D01*
X127575000Y-105207166D01*
X127608333Y-105073833D01*
X127608333Y-104840500D01*
X127575000Y-104707166D01*
X127508333Y-104640500D01*
X127441666Y-104607166D01*
X126841666Y-105307166D02*
X126841666Y-104607166D01*
X126541666Y-105307166D02*
X126541666Y-104940500D01*
X126575000Y-104873833D01*
X126641666Y-104840500D01*
X126741666Y-104840500D01*
X126808333Y-104873833D01*
X126841666Y-104907166D01*
X126208333Y-105307166D02*
X126208333Y-104840500D01*
X126208333Y-104907166D02*
X126175000Y-104873833D01*
X126108333Y-104840500D01*
X126008333Y-104840500D01*
X125941666Y-104873833D01*
X125908333Y-104940500D01*
X125908333Y-105307166D01*
X125908333Y-104940500D02*
X125875000Y-104873833D01*
X125808333Y-104840500D01*
X125708333Y-104840500D01*
X125641666Y-104873833D01*
X125608333Y-104940500D01*
X125608333Y-105307166D01*
D10*
X147125000Y-100746428D02*
X146925000Y-101346428D01*
X146725000Y-100746428D01*
X146525000Y-101346428D02*
X146525000Y-100946428D01*
X146525000Y-100746428D02*
X146553571Y-100775000D01*
X146525000Y-100803571D01*
X146496428Y-100775000D01*
X146525000Y-100746428D01*
X146525000Y-100803571D01*
X146267857Y-101317857D02*
X146210714Y-101346428D01*
X146096428Y-101346428D01*
X146039285Y-101317857D01*
X146010714Y-101260714D01*
X146010714Y-101232142D01*
X146039285Y-101175000D01*
X146096428Y-101146428D01*
X146182142Y-101146428D01*
X146239285Y-101117857D01*
X146267857Y-101060714D01*
X146267857Y-101032142D01*
X146239285Y-100975000D01*
X146182142Y-100946428D01*
X146096428Y-100946428D01*
X146039285Y-100975000D01*
X145753571Y-101346428D02*
X145753571Y-100946428D01*
X145753571Y-100746428D02*
X145782142Y-100775000D01*
X145753571Y-100803571D01*
X145725000Y-100775000D01*
X145753571Y-100746428D01*
X145753571Y-100803571D01*
X145467857Y-101346428D02*
X145467857Y-100746428D01*
X145467857Y-100975000D02*
X145410714Y-100946428D01*
X145296428Y-100946428D01*
X145239285Y-100975000D01*
X145210714Y-101003571D01*
X145182142Y-101060714D01*
X145182142Y-101232142D01*
X145210714Y-101289285D01*
X145239285Y-101317857D01*
X145296428Y-101346428D01*
X145410714Y-101346428D01*
X145467857Y-101317857D01*
X144839285Y-101346428D02*
X144896428Y-101317857D01*
X144925000Y-101260714D01*
X144925000Y-100746428D01*
X144382142Y-101317857D02*
X144439285Y-101346428D01*
X144553571Y-101346428D01*
X144610714Y-101317857D01*
X144639285Y-101260714D01*
X144639285Y-101032142D01*
X144610714Y-100975000D01*
X144553571Y-100946428D01*
X144439285Y-100946428D01*
X144382142Y-100975000D01*
X144353571Y-101032142D01*
X144353571Y-101089285D01*
X144639285Y-101146428D01*
X143667857Y-101317857D02*
X143582142Y-101346428D01*
X143439285Y-101346428D01*
X143382142Y-101317857D01*
X143353571Y-101289285D01*
X143325000Y-101232142D01*
X143325000Y-101175000D01*
X143353571Y-101117857D01*
X143382142Y-101089285D01*
X143439285Y-101060714D01*
X143553571Y-101032142D01*
X143610714Y-101003571D01*
X143639285Y-100975000D01*
X143667857Y-100917857D01*
X143667857Y-100860714D01*
X143639285Y-100803571D01*
X143610714Y-100775000D01*
X143553571Y-100746428D01*
X143410714Y-100746428D01*
X143325000Y-100775000D01*
X143067857Y-101346428D02*
X143067857Y-100946428D01*
X143067857Y-100746428D02*
X143096428Y-100775000D01*
X143067857Y-100803571D01*
X143039285Y-100775000D01*
X143067857Y-100746428D01*
X143067857Y-100803571D01*
X142525000Y-101346428D02*
X142525000Y-100746428D01*
X142525000Y-101317857D02*
X142582142Y-101346428D01*
X142696428Y-101346428D01*
X142753571Y-101317857D01*
X142782142Y-101289285D01*
X142810714Y-101232142D01*
X142810714Y-101060714D01*
X142782142Y-101003571D01*
X142753571Y-100975000D01*
X142696428Y-100946428D01*
X142582142Y-100946428D01*
X142525000Y-100975000D01*
X142010714Y-101317857D02*
X142067857Y-101346428D01*
X142182142Y-101346428D01*
X142239285Y-101317857D01*
X142267857Y-101260714D01*
X142267857Y-101032142D01*
X142239285Y-100975000D01*
X142182142Y-100946428D01*
X142067857Y-100946428D01*
X142010714Y-100975000D01*
X141982142Y-101032142D01*
X141982142Y-101089285D01*
X142267857Y-101146428D01*
D11*
X150600000Y-100619047D02*
X150576190Y-100571428D01*
X150576190Y-100500000D01*
X150600000Y-100428571D01*
X150647619Y-100380952D01*
X150695238Y-100357142D01*
X150790476Y-100333333D01*
X150861904Y-100333333D01*
X150957142Y-100357142D01*
X151004761Y-100380952D01*
X151052380Y-100428571D01*
X151076190Y-100500000D01*
X151076190Y-100547619D01*
X151052380Y-100619047D01*
X151028571Y-100642857D01*
X150861904Y-100642857D01*
X150861904Y-100547619D01*
X151076190Y-100857142D02*
X150576190Y-100857142D01*
X151076190Y-101142857D01*
X150576190Y-101142857D01*
X151076190Y-101380952D02*
X150576190Y-101380952D01*
X150576190Y-101500000D01*
X150600000Y-101571428D01*
X150647619Y-101619047D01*
X150695238Y-101642857D01*
X150790476Y-101666666D01*
X150861904Y-101666666D01*
X150957142Y-101642857D01*
X151004761Y-101619047D01*
X151052380Y-101571428D01*
X151076190Y-101500000D01*
X151076190Y-101380952D01*
%LPC*%
X137480000Y-105280000D02*
X139060000Y-105280000D01*
X139060000Y-105280000D02*
X139060000Y-107010000D01*
X139060000Y-107010000D02*
X137480000Y-107010000D01*
X137480000Y-107010000D02*
X137480000Y-105280000D01*
G36*
X137480000Y-105280000D02*
G01*
X139060000Y-105280000D01*
X139060000Y-107010000D01*
X137480000Y-107010000D01*
X137480000Y-105280000D01*
G37*
D13*
X139725000Y-106100000D03*
X149725000Y-106100000D03*
X132600000Y-103525000D03*
X122600000Y-103525000D03*
X139725000Y-101000000D03*
X149725000Y-101000000D03*
D14*
X122100000Y-100575000D03*
X122100000Y-105775000D03*
D13*
X135275000Y-106175000D03*
X125275000Y-106175000D03*
X135275000Y-100750000D03*
X125275000Y-100750000D03*
D14*
X152325000Y-105800000D03*
X152325000Y-100575000D03*
M02*
